#!OML:ASF F:\VICON\USERDATA\INSTALL\rory3\rory3.ASF
:FULLY-SPECIFIED
:DEGREES
81
root -12.3455 17.8979 -3.05034 -1.90229 11.8865 -1.56288
lowerback 10.0658 2.20231 1.27083
upperback 0.617183 3.07797 0.0556533
thorax -4.93332 1.4928 -1.08996
lowerneck -20.2591 -5.47164 -11.8149
upperneck 28.1671 -6.48845 8.68194
head 13.6219 -2.93258 4.31081
rclavicle -1.97729e-014 7.25564e-015
rhumerus -32.0259 -17.305 -76.8719
rradius 32.5224
rwrist 4.65742
rhand -17.1144 10.9319
rfingers 7.12502
rthumb 9.12497 -18.8507
lclavicle -1.97729e-014 7.25564e-015
lhumerus -35.5113 13.785 81.2441
lradius 22.8184
lwrist -15.5902
lhand -14.5317 29.1859
lfingers 7.12502
lthumb 11.6164 58.8439
rfemur 3.34666 -5.16079 18.2811
rtibia 46.3685
rfoot 9.65832 5.40917
rtoes -2.49306
lfemur -12.7352 2.93149 -27.0659
ltibia 14.1118
lfoot 3.54486 3.54192
ltoes 12.5871
82
root -12.2841 17.9021 -2.90847 -2.00671 12.2312 -0.882657
lowerback 10.1612 2.23898 0.64848
upperback 0.680496 3.04753 -0.117669
thorax -4.944 1.48975 -0.920165
lowerneck -20.3201 -5.45277 -11.779
upperneck 28.3782 -6.43573 8.55785
head 13.7111 -2.92195 4.27104
rclavicle -5.66909e-014 6.26172e-015
rhumerus -32.3955 -17.085 -77.0091
rradius 32.4215
rwrist 4.26987
rhand -17.013 11.2532
rfingers 7.12502
rthumb 9.22276 -18.5251
lclavicle -5.66909e-014 6.26172e-015
lhumerus -35.323 13.1146 81.5605
lradius 23.1399
lwrist -15.1066
lhand -14.5265 28.8571
lfingers 7.12502
lthumb 11.6214 58.5148
rfemur 2.17844 -5.16278 17.2365
rtibia 48.9824
rfoot 11.4859 6.12418
rtoes 1.68393
lfemur -11.5914 2.70939 -27.9353
ltibia 13.5341
lfoot 3.3534 3.34879
ltoes 11.6516
83
root -12.2259 17.9086 -2.77101 -2.08187 12.7033 -0.350002
lowerback 10.208 2.20186 0.142194
upperback 0.778436 2.93437 -0.23647
thorax -4.88875 1.44435 -0.743645
lowerneck -20.4801 -5.44438 -11.8416
upperneck 28.5427 -6.37203 8.50677
head 13.808 -2.90557 4.27783
rclavicle -6.04616e-014 -8.54774e-015
rhumerus -32.5099 -16.7305 -77.177
rradius 32.2324
rwrist 4.46992
rhand -16.0361 10.9516
rfingers 7.12502
rthumb 10.1653 -18.7828
lclavicle -6.04616e-014 -8.54774e-015
lhumerus -35.0287 12.6792 81.7757
lradius 23.3647
lwrist -14.5822
lhand -15.2284 27.8727
lfingers 7.12502
lthumb 10.9444 57.5674
rfemur 0.918619 -5.16539 16.4403
rtibia 51.5588
rfoot 12.9217 6.36811
rtoes 5.60708
lfemur -10.5222 2.49518 -28.6554
ltibia 12.9615
lfoot 3.14663 3.10423
ltoes 11.1312
84
root -12.1676 17.9113 -2.63689 -2.16935 13.1765 -0.0309093
lowerback 10.1638 2.16722 -0.108922
upperback 0.873186 2.85632 -0.313496
thorax -4.77412 1.41131 -0.667573
lowerneck -20.5459 -5.41253 -11.8191
upperneck 28.5707 -6.2994 8.42972
head 13.8203 -2.88018 4.25652
rclavicle -3.1818e-014 6.85807e-015
rhumerus -32.6076 -16.2141 -77.435
rradius 32.1156
rwrist 4.77455
rhand -15.3765 10.115
rfingers 7.12502
rthumb 10.8016 -19.5872
lclavicle -3.1818e-014 6.85807e-015
lhumerus -34.6929 12.188 81.98
lradius 23.6725
lwrist -14.3553
lhand -15.0336 27.9041
lfingers 7.12502
lthumb 11.1324 57.5888
rfemur -0.385153 -5.24887 15.8938
rtibia 54.033
rfoot 13.603 6.62829
rtoes 6.7664
lfemur -9.57098 2.32957 -29.147
ltibia 12.5073
lfoot 2.97408 2.88742
ltoes 11.2189
85
root -12.1134 17.9108 -2.50802 -2.29405 13.6991 0.210396
lowerback 10.2681 2.1256 -0.347696
upperback 0.925782 2.77193 -0.350029
thorax -4.78753 1.37413 -0.562903
lowerneck -20.6031 -5.41881 -11.7693
upperneck 28.651 -6.29572 8.34862
head 13.8613 -2.88286 4.21782
rclavicle -4.59627e-014 -3.57812e-015
rhumerus -32.7274 -15.1609 -78.0471
rradius 32.2542
rwrist 3.66582
rhand -16.3557 8.87203
rfingers 7.12502
rthumb 9.85696 -20.8772
lclavicle -4.59627e-014 -3.57812e-015
lhumerus -34.3708 11.34 82.3777
lradius 24.0016
lwrist -13.4082
lhand -15.4107 27.7081
lfingers 7.12502
lthumb 10.7686 57.4121
rfemur -1.60099 -5.41861 15.4601
rtibia 56.336
rfoot 13.409 6.71627
rtoes 5.08229
lfemur -8.70804 2.24967 -29.5366
ltibia 12.2432
lfoot 2.62962 2.62626
ltoes 12.0827
86
root -12.0638 17.9085 -2.3805 -2.41382 14.2569 0.44656
lowerback 10.4338 2.08017 -0.64192
upperback 0.993321 2.67665 -0.356908
thorax -4.8229 1.33281 -0.396592
lowerneck -20.832 -5.45939 -11.7707
upperneck 28.8148 -6.28406 8.19921
head 13.9739 -2.89434 4.16281
rclavicle -8.05078e-014 1.16289e-014
rhumerus -32.8396 -14.9175 -78.1342
rradius 32.4477
rwrist 3.97288
rhand -15.7555 8.26889
rfingers 7.12502
rthumb 10.436 -21.4521
lclavicle -8.05078e-014 1.16289e-014
lhumerus -33.9591 10.5924 82.777
lradius 23.8981
lwrist -11.4952
lhand -18.6767 24.2692
lfingers 7.12502
lthumb 7.61725 54.112
rfemur -2.71525 -5.55488 15.0724
rtibia 58.4574
rfoot 12.5703 6.07399
rtoes 4.13437
lfemur -7.85854 2.19301 -29.9029
ltibia 11.9856
lfoot 2.16702 2.43049
ltoes 12.9536
87
root -12.0117 17.903 -2.24364 -2.49821 14.7886 0.772947
lowerback 10.4413 2.01862 -1.04288
upperback 1.07014 2.54911 -0.362919
thorax -4.76391 1.27783 -0.158055
lowerneck -21.0789 -5.4028 -11.745
upperneck 29.0626 -6.11758 7.9826
head 14.1034 -2.84586 4.10762
rclavicle 3.90643e-014 -1.49089e-015
rhumerus -32.9169 -14.6888 -78.2087
rradius 32.3138
rwrist 4.67337
rhand -14.7519 7.69011
rfingers 7.12502
rthumb 11.4041 -21.9798
lclavicle 3.90643e-014 -1.49089e-015
lhumerus -33.5953 10.3354 82.9913
lradius 24.5879
lwrist -12.079
lhand -17.364 25.575
lfingers 7.12502
lthumb 8.88407 55.368
rfemur -3.71017 -5.63878 14.6123
rtibia 60.3793
rfoot 11.4207 5.03067
rtoes 3.6067
lfemur -6.91884 2.18308 -30.3534
ltibia 11.6133
lfoot 1.6518 2.14052
ltoes 12.9306
88
root -11.9554 17.9001 -2.10056 -2.58347 15.4376 1.24266
lowerback 10.3846 1.93237 -1.5743
upperback 1.11679 2.37297 -0.413578
thorax -4.70169 1.20063 0.115822
lowerneck -20.8985 -5.2983 -11.8176
upperneck 29.1053 -5.96524 8.00202
head 14.067 -2.78906 4.16033
rclavicle -4.36084e-015 4.12478e-015
rhumerus -33.0828 -14.2794 -78.3969
rradius 31.863
rwrist 4.52655
rhand -14.3669 7.66935
rfingers 7.12502
rthumb 11.7753 -21.9796
lclavicle -4.36084e-015 4.12478e-015
lhumerus -33.4601 9.91896 83.1883
lradius 25.1796
lwrist -12.0932
lhand -18.0047 25.18
lfingers 7.12502
lthumb 8.26579 54.9983
rfemur -4.65641 -5.90423 13.9485
rtibia 62.1354
rfoot 10.1694 4.3081
rtoes 1.65778
lfemur -5.88732 2.20205 -30.9647
ltibia 11.2354
lfoot 1.19058 1.54339
ltoes 12.2679
89
root -11.9018 17.8974 -1.96571 -2.60812 16.2447 1.64203
lowerback 10.2862 1.81738 -2.01408
upperback 1.18309 2.1719 -0.458924
thorax -4.58897 1.10867 0.348961
lowerneck -20.5743 -5.23685 -11.919
upperneck 28.9535 -5.87545 8.02561
head 13.9249 -2.7623 4.20099
rclavicle 2.50562e-014 -9.91439e-015
rhumerus -33.2644 -14.2633 -78.4106
rradius 31.7349
rwrist 5.47511
rhand -13.8046 7.42719
rfingers 7.12502
rthumb 12.3175 -22.19
lclavicle 2.50562e-014 -9.91439e-015
lhumerus -33.2154 9.74569 83.224
lradius 25.6157
lwrist -12.5482
lhand -17.609 26.7156
lfingers 7.12502
lthumb 8.64769 56.5185
rfemur -5.69594 -6.35528 13.3573
rtibia 63.7397
rfoot 9.00749 3.78688
rtoes 0.269483
lfemur -4.98568 2.15607 -31.4953
ltibia 10.8822
lfoot 0.823699 0.918382
ltoes 12.2036
90
root -11.8552 17.8924 -1.84131 -2.68333 17.023 1.79408
lowerback 10.3722 1.67202 -2.2387
upperback 1.2205 1.95283 -0.443659
thorax -4.60072 1.00467 0.520406
lowerneck -20.5993 -5.19072 -11.9058
upperneck 29.0488 -5.7646 7.88585
head 13.9516 -2.73176 4.16514
rclavicle -4.11609e-014 -4.82053e-015
rhumerus -33.402 -14.2837 -78.4483
rradius 31.5832
rwrist 6.44611
rhand -13.655 7.66806
rfingers 7.12502
rthumb 12.4617 -21.9404
lclavicle -4.11609e-014 -4.82053e-015
lhumerus -32.8703 9.52924 83.3351
lradius 26.0724
lwrist -12.3793
lhand -15.6908 29.4065
lfingers 7.12502
lthumb 10.4984 59.1243
rfemur -6.71672 -6.68355 13.1321
rtibia 65.1793
rfoot 8.05506 2.8589
rtoes 1.5228
lfemur -4.13745 2.13185 -31.7287
ltibia 10.5078
lfoot 0.637508 0.35215
ltoes 12.1888
91
root -11.807 17.8878 -1.71751 -2.7658 17.7719 1.8502
lowerback 10.5212 1.52145 -2.32341
upperback 1.1806 1.73953 -0.420649
thorax -4.72281 0.902261 0.618087
lowerneck -20.7242 -5.11661 -11.8309
upperneck 29.3066 -5.60829 7.68272
head 14.0602 -2.68347 4.10635
rclavicle 3.8346e-014 3.31722e-015
rhumerus -33.678 -14.4967 -78.3752
rradius 31.3261
rwrist 7.72564
rhand -13.8046 8.08658
rfingers 7.12502
rthumb 12.3175 -21.5306
lclavicle 3.8346e-014 3.31722e-015
lhumerus -32.9387 9.08464 83.4871
lradius 27.0373
lwrist -11.5129
lhand -15.5841 29.3147
lfingers 7.12502
lthumb 10.6014 59.0273
rfemur -7.73912 -6.96198 13.0379
rtibia 66.4274
rfoot 7.09852 1.90094
rtoes 1.58331
lfemur -3.34495 2.172 -31.8486
ltibia 10.2087
lfoot 0.383559 -0.424599
ltoes 11.635
